<svg width="15" height="19" viewBox="0 0 15 19" fill="none" xmlns="http://www.w3.org/2000/svg">
<path fill-rule="evenodd" clip-rule="evenodd" d="M11.4525 6.31966H12.321C13.2763 6.31966 14.0579 7.1013 14.0579 8.05664V16.7415C14.0579 17.6969 13.2763 18.4785 12.321 18.4785H1.89909C0.94375 18.4785 0.162109 17.6969 0.162109 16.7415V8.05664C0.162109 7.1013 0.94375 6.31966 1.89909 6.31966H2.76758V4.58268C2.76758 2.18565 4.71299 0.240234 7.11002 0.240234C9.50706 0.240234 11.4525 2.18565 11.4525 4.58268V6.31966ZM7.11035 1.97707C5.66866 1.97707 4.50488 3.14084 4.50488 4.58253V6.31951H9.71582V4.58253C9.71582 3.14084 8.55204 1.97707 7.11035 1.97707ZM1.89941 16.7415V8.05664H12.3213V16.7415H1.89941ZM8.84704 12.3991C8.84704 13.3544 8.06539 14.1361 7.11006 14.1361C6.15472 14.1361 5.37308 13.3544 5.37308 12.3991C5.37308 11.4438 6.15472 10.6621 7.11006 10.6621C8.06539 10.6621 8.84704 11.4438 8.84704 12.3991Z" fill="white"/>
</svg>
