<svg width="18" height="18" viewBox="0 0 18 18" fill="none" xmlns="http://www.w3.org/2000/svg">
<path fill-rule="evenodd" clip-rule="evenodd" d="M9.10872 0.143066C4.31466 0.143066 0.423828 4.0339 0.423828 8.82796C0.423828 13.622 4.31466 17.5129 9.10872 17.5129C13.9028 17.5129 17.7936 13.622 17.7936 8.82796C17.7936 4.0339 13.9028 0.143066 9.10872 0.143066ZM4.82672 14.2822C5.20017 13.5006 7.47561 12.7363 9.10837 12.7363C10.7411 12.7363 13.0253 13.5006 13.39 14.2822C12.2089 15.2202 10.7238 15.776 9.10837 15.776C7.49298 15.776 6.00787 15.2202 4.82672 14.2822ZM9.10899 10.9991C10.377 10.9991 13.3906 11.5115 14.6326 13.0226C15.5184 11.8589 16.0569 10.4085 16.0569 8.82783C16.0569 4.99779 12.939 1.87991 9.10899 1.87991C5.27895 1.87991 2.16107 4.99779 2.16107 8.82783C2.16107 10.4085 2.69954 11.8589 3.58539 13.0226C4.82733 11.5115 7.84099 10.9991 9.10899 10.9991ZM9.10899 3.61719C7.42412 3.61719 6.06927 4.97203 6.06927 6.6569C6.06927 8.34177 7.42412 9.69662 9.10899 9.69662C10.7939 9.69662 12.1487 8.34177 12.1487 6.6569C12.1487 4.97203 10.7939 3.61719 9.10899 3.61719ZM7.80566 6.65675C7.80566 7.3776 8.38755 7.95949 9.1084 7.95949C9.82924 7.95949 10.4111 7.3776 10.4111 6.65675C10.4111 5.93591 9.82924 5.35402 9.1084 5.35402C8.38755 5.35402 7.80566 5.93591 7.80566 6.65675Z" fill="white"/>
</svg>
